<svg xmlns="http://www.w3.org/2000/svg" xmlns:xlink="http://www.w3.org/1999/xlink" viewBox="0 0 263.18 130.33"><defs><style>.cls-1{fill:none;}.cls-2{isolation:isolate;}.cls-3{clip-path:url(#clip-path);}.cls-4{fill:#231f20;}.cls-5{clip-path:url(#clip-path-2);}.cls-6{clip-path:url(#clip-path-3);}.cls-7{fill-rule:evenodd;}</style><clipPath id="clip-path" transform="translate(-0.39 -89.73)"><path class="cls-1" d="M.47,36.73C.5,23.08,27.86,10,75,3.68c66-8.87,145.64-1.16,178,17.21l-.47,255.54c-32.34-18.37-112-26.08-178-17.21C27.38,265.55,0,278.62,0,292.27.14,215.61.33,113.39.47,36.73Z"/></clipPath><clipPath id="clip-path-2" transform="translate(-0.39 -89.73)"><path class="cls-1" d="M0,292.27.47,36.73c0,5.47,4.37,11,13.62,16.28,32.34,18.37,112,26.08,178,17.21,47.09-6.34,74.45-19.4,74.48-33l-.48,255.54c0,13.64-27.38,26.71-74.47,33.05-66,8.86-145.64,1.16-178-17.21C4.36,303.29,0,297.73,0,292.27Z"/></clipPath><clipPath id="clip-path-3" transform="translate(-0.39 -89.73)"><rect class="cls-1" x="105.32" y="127.77" width="43.4" height="31.99"/></clipPath></defs><g id="Layer_2" data-name="Layer 2"><g id="Layer_1-2" data-name="Layer 1"><g class="cls-2"><g class="cls-2"><g class="cls-3"><path class="cls-4" d="M212.73,97.17c3.89.81,7.64,1.68,11.22,2.61,9.46,25.56,9.66,27,9.89,28.56l.16.06a10.47,10.47,0,0,1,.84-3c5-11.8,5.3-12.51,8.06-19.53a87.11,87.11,0,0,1,8.12,3.75c-3.42,8.46-6.13,15.14-11.81,27.12q-4.91-1.8-10.47-3.4c-4.8-11.46-8.59-20.51-16-36.22" transform="translate(-0.39 -89.73)"/><path class="cls-4" d="M174,91.57c7.61.69,15,1.58,22.07,2.63v5.63l-4.55-.65,0,21c1.53.21,3.05.42,4.55.65v5.63c-7.07-1.06-14.46-1.94-22.07-2.63v-5.63c1.62.15,3.23.3,4.83.47l0-21c-1.6-.17-3.21-.32-4.83-.47V91.57" transform="translate(-0.39 -89.73)"/><path class="cls-4" d="M95,91.24q6.92-.57,13.9-.92l0,12.87c8.53-.43,17.11-.62,25.63-.58l0-12.88q7,0,13.83.26l-.06,32.29q-6.87-.23-13.83-.26l0-13.15c-8.52,0-17.11.15-25.64.58l0,13.15q-7,.34-13.9.92L95,91.24" transform="translate(-0.39 -89.73)"/><path class="cls-4" d="M51.05,117c-5.91-10.91-5.91-10.91-6.08-12.36l-.26.07a11.91,11.91,0,0,1-.8,3.1c-1.46,3.64-3.45,8.48-4.88,12.14q5.64-1.56,12-3M38.53,100.6Q44.37,99,51,97.51c6.21,9.55,10.3,15.85,19.52,28.77q-7.05,1-13.44,2.27l-3.63-6.47q-9,1.88-16.68,4.1l-3,8.08q-5.05,1.58-9.4,3.29c4.29-12.16,7.39-21,14.15-37" transform="translate(-0.39 -89.73)"/><path class="cls-4" d="M2.87,118.72c4.08-5.28,9.74-2.28,10.62,5.62C15.27,140.16.56,154.91.39,154.92l0-16.23a14.5,14.5,0,0,1,3.73-7.16v5.8a18.37,18.37,0,0,0-2.38,3.33V147c4.71-2.1,9.63-21.65,3.76-23.55-1.54-.5-4.09,1.73-4.91,8.26v-6.82a14.17,14.17,0,0,1,2.26-6.15" transform="translate(-0.39 -89.73)"/></g></g><g class="cls-2"><g class="cls-5"><path class="cls-4" d="M27,192.92a93.55,93.55,0,0,1-12.41-5.56v1.28q2.25,1.23,4.77,2.4l0,10.83,2.1.94,0-10.83c1.76.77,3.61,1.5,5.54,2.22v-1.28" transform="translate(-0.39 -89.73)"/><path class="cls-4" d="M32.34,194.07l-2.43-.81,0,12.8,2.42.81V202c.11-3,5.62-1.53,7.24.05a3.09,3.09,0,0,1,1,2.3v5l2.72.72V204.7c-.25-4.87-8.4-6.35-10.85-5l-.06,0v-5.59" transform="translate(-0.39 -89.73)"/><path class="cls-4" d="M50.32,206.57c1-2.94,8.8-1.36,9.93,1.19a2.27,2.27,0,0,1,.19.85q-5.22-.95-10.12-2M55.74,204c-8.33-1.59-9.46,2.34-7.75,5,2.47,3.81,10.61,4.94,14.28,4.48v-1.31c-4.64.75-11.71-.77-12-4.43,4.26.95,8.72,1.82,13.33,2.62v-.73c-.11-3.35-4.35-4.9-7.89-5.61" transform="translate(-0.39 -89.73)"/><path class="cls-4" d="M102.74,206.77l-3.92-.28c-9.18,9.34-9.18,9.34-9.38,9.85h-.08a3.78,3.78,0,0,0-.61-1.13c-2.48-3.15-5.8-7.34-8.25-10.51l-3.81-.49c3.2,4,7.47,9.39,10.72,13.37l3.9.39,11.43-11.19" transform="translate(-0.39 -89.73)"/><path class="cls-4" d="M110.38,210.68l-3.61-.2,0,8.65,3.61.19,0-8.64m-1.75-4.09c-1.84-.08-2.7.52-2.21,1.09.82,1,4.46.95,4.59,0,.07-.53-1-1-2.38-1.08" transform="translate(-0.39 -89.73)"/><path class="cls-4" d="M127.52,211.07c-1.61,0-4.52.22-6,1.82h-.09V211.1l-3.66-.11,0,8.65,3.66.11v-4.41c.13-3.44,6.36-3.23,8.33-2.69v-1.43a15.84,15.84,0,0,0-2.21-.15" transform="translate(-0.39 -89.73)"/><path class="cls-4" d="M138.67,208.7l-3.71.46v2.11c-1.33,0-2.65,0-4,0v1.19h4v5.11c.28,3.72,9.47,2.17,9.56,2.15v-1.18c-.06,0-5.78,1.37-5.85-1.23v-4.87l5.85-.09v-1.19l-5.86.09V208.7" transform="translate(-0.39 -89.73)"/><path class="cls-4" d="M168.18,210l-3.68.25v5c-.15,3.13-9.26,4.1-11.28,2a2.09,2.09,0,0,1-.54-1.42v-5L149,211v5.17c.36,5,12.15,3.68,15.43,1.37h.08v1.37l3.68-.26,0-8.64" transform="translate(-0.39 -89.73)"/><path class="cls-4" d="M182,216.47c-3.7.37-5-.56-4.09-1.68.32-.4,1-.88,4.84-1.53l5.42-.92v.86c-.09,1.8-3.26,3-6.17,3.27m1.87-8.09a38.24,38.24,0,0,0-7.71,1.6v1.41c1.82-.73,11.77-3.86,12-.16-10.37,1.76-10.37,1.76-11.87,2.39-4,1.67-1.81,3.37-1.78,3.38,1.79,1.3,9.52,1.37,13.56-1.63h.08v1.35l3.56-.46v-5.62c-.12-1.6-1.16-3-7.87-2.25" transform="translate(-0.39 -89.73)"/><path class="cls-4" d="M201.66,202l-3.37.53,0,12.81,3.37-.54,0-12.8" transform="translate(-0.39 -89.73)"/><path class="cls-4" d="M232.92,195.51q-7.48,2.34-16.49,4.34v1.28c2.5-.55,4.9-1.12,7.22-1.72l0,10.83,2.78-.73,0-10.83c2.26-.61,4.42-1.24,6.5-1.89v-1.28" transform="translate(-0.39 -89.73)"/><path class="cls-4" d="M241.92,203.5c-4.15,1.57-5.31-.81-4.3-3.14,1.26-2.87,7.21-5.58,8.21-3.1.43,1.05.62,4.46-3.91,6.24m.17-7.94c-8.32,3.36-8.3,8.47-5.71,9.6,4.44,1.93,13.22-4,11.4-9-.9-2.47-4.5-1-5.69-.58" transform="translate(-0.39 -89.73)"/><path class="cls-4" d="M258.33,187.1c-.42.32-.85.63-1.29,1v5c-.06,3.31-3.3,5.41-4.29,4.54a2.31,2.31,0,0,1-.46-1.61v-5c-.55.3-1.1.6-1.68.9v5.17c.16,4.94,4.89.65,4.94.6a7.16,7.16,0,0,0,1.45-2.33l0,0v1.37c.45-.32.88-.64,1.29-.95l0-8.65" transform="translate(-0.39 -89.73)"/><path class="cls-4" d="M263.11,182.38a8.44,8.44,0,0,0-1.43,3.55l0,0v-1.78c-.32.33-.66.66-1,1v8.65c.35-.33.68-.65,1-1v-4.41c0-3.12,1.44-5,1.92-5.07V181.9a2.21,2.21,0,0,0-.46.48" transform="translate(-0.39 -89.73)"/><path class="cls-4" d="M37.78,153.35q-5.13-1.48-9.7-3.14C20.08,170,20,171,19.75,172.54l-.15-.07a18.55,18.55,0,0,0-.66-3.53c-3.87-15.12-4.28-16.7-6.31-25.83A44,44,0,0,1,6.87,139c2.39,12.48,4.12,21.5,8.54,38a87.53,87.53,0,0,0,8.53,3.94c4.06-8.55,7.27-15.31,13.84-27.59" transform="translate(-0.39 -89.73)"/><path class="cls-4" d="M73.14,160.64c-7.15-1-14-2.22-20.41-3.58v5.63c1.37.29,2.75.57,4.16.85l0,21c-1.41-.27-2.79-.56-4.16-.85v5.63c6.43,1.37,13.26,2.57,20.41,3.58V187.3l-4.54-.68,0-21c1.5.24,3,.46,4.53.68l0-5.63" transform="translate(-0.39 -89.73)"/><path class="cls-4" d="M150.34,164.48c-4.66.16-9.34.25-14,.27l0,12.87c-8.54,0-17-.15-25.36-.57l0-12.87c-4.53-.22-9-.51-13.43-.86l-.06,32.28c4.41.35,8.9.64,13.43.87l0-13.16c8.34.42,16.83.61,25.37.57l0,13.15c4.65,0,9.33-.11,14-.27l.06-32.28" transform="translate(-0.39 -89.73)"/><path class="cls-4" d="M197,179.87c6.85-13.3,6.85-13.3,7.09-14.9l.31-.05a8.1,8.1,0,0,0,.89,2.74c1.71,2.94,4,6.85,5.68,9.8q-6.63,1.31-14,2.41m14.65-22.06c-4.59.91-9.44,1.76-14.54,2.52-5.94,9.83-11.08,18.31-21.77,34.88q7.42-.68,14.69-1.61l4.17-7.75q10.38-1.47,19.41-3.35l3.54,6.42q6-1.35,11.37-2.86c-5.17-9.12-8.9-15.71-16.87-28.25" transform="translate(-0.39 -89.73)"/><path class="cls-4" d="M258,140.31c-20.36,15.47-18.89,34.59-8.81,36.22,3.74.6,10.92-1.82,14.28-10.87l0-16.23a30.37,30.37,0,0,1-7.73,6.87v5.8a39.5,39.5,0,0,0,4.23-3.18v6.32c-2.66,4.4-8.39,6.09-9.79.1-2.64-11.29,8.89-21.68,12.71-21.33v-6.83c-.76.3-1.78.78-4.91,3.13" transform="translate(-0.39 -89.73)"/></g></g></g><g class="cls-6"><path d="M117.47,134.83h-9.78a1,1,0,0,0-1,1v21.55a1,1,0,0,0,1,1h38.66a1,1,0,0,0,.71-.3,1,1,0,0,0,.3-.71V135.84a1,1,0,0,0-.3-.71,1,1,0,0,0-.71-.3h-9.78a.67.67,0,0,1-.57-.3l.56-.38-.56.38-3.66-5.4H121.7l-3.63,5.35a.69.69,0,0,1-.6.35Zm-9.78-1.36h9.43l3.66-5.4h0a.67.67,0,0,1,.56-.3h11.35a.69.69,0,0,1,.6.35l3.63,5.35h9.43a2.39,2.39,0,0,1,2.37,2.37v21.55a2.39,2.39,0,0,1-2.37,2.37H107.69a2.37,2.37,0,0,1-2.37-2.37V135.84a2.37,2.37,0,0,1,2.37-2.37Z" transform="translate(-0.39 -89.73)"/></g><path d="M132.68,141a8,8,0,1,0,2.34,5.66,8,8,0,0,0-2.34-5.66Zm-5.66-3.7A9.35,9.35,0,1,1,120.4,140a9.29,9.29,0,0,1,6.62-2.74Z" transform="translate(-0.39 -89.73)"/><path d="M121.16,146.62a.68.68,0,0,0,1.36,0,4.51,4.51,0,0,1,4.5-4.5.68.68,0,0,0,0-1.36,5.87,5.87,0,0,0-5.86,5.86Z" transform="translate(-0.39 -89.73)"/><path class="cls-7" d="M142.76,134.15h2.75V132.5a1.37,1.37,0,0,0-1.37-1.37h0a1.37,1.37,0,0,0-1.38,1.37v1.65Z" transform="translate(-0.39 -89.73)"/><path d="M130,131.18H124v2.29H130v-2.29Zm-6.27-1.36h6.61a1,1,0,0,1,.72.3h0a.18.18,0,0,1,.05.07,1,1,0,0,1,.24.65v3a1,1,0,0,1-.29.71h0a1,1,0,0,1-.71.3H123.7a1,1,0,0,1-.72-.3h0l0-.06a1,1,0,0,1-.25-.66v-3a1,1,0,0,1,1-1Z" transform="translate(-0.39 -89.73)"/></g></g></svg>