<svg width="373" height="74" viewBox="0 0 373 74" fill="none" xmlns="http://www.w3.org/2000/svg">
<rect width="73" height="73" rx="8" fill="#9B0000"/>
<path d="M15.7321 36.3771C15.7321 36.8408 15.5668 37.2856 15.2726 37.6135C14.9783 37.9414 14.5793 38.1256 14.1632 38.1256C13.7471 38.1256 13.348 37.9414 13.0538 37.6135C12.7596 37.2856 12.5943 36.8408 12.5943 36.3771C12.5943 35.9134 12.7596 35.4687 13.0538 35.1408C13.348 34.8129 13.7471 34.6287 14.1632 34.6287C14.5793 34.6287 14.9783 34.8129 15.2726 35.1408C15.5668 35.4687 15.7321 35.9134 15.7321 36.3771V36.3771ZM8.0809 35.9744C9.40886 32.8568 11.4162 31.2878 14.1072 31.2878C16.7995 31.2878 18.8054 32.8568 20.1334 35.9759C20.1867 36.1016 20.2143 36.2389 20.2143 36.3779C20.2143 36.5169 20.1867 36.6542 20.1334 36.7799C18.8054 39.8975 16.7981 41.4664 14.1072 41.4664C11.4148 41.4664 9.40886 39.8975 8.0809 36.7783C7.97304 36.5254 7.97304 36.2319 8.0809 35.9744V35.9744ZM14.1632 39.1247C15.5248 39.1247 16.6286 37.8945 16.6286 36.3771C16.6286 34.8597 15.5248 33.6295 14.1632 33.6295C12.8016 33.6295 11.6978 34.8597 11.6978 36.3771C11.6978 37.8945 12.8016 39.1247 14.1632 39.1247Z" fill="white"/>
<path d="M41.4762 9.44313H39.5536L39.0956 8.17361C39.0639 8.08674 39.0059 8.01165 38.9295 7.95859C38.8531 7.90554 38.762 7.87712 38.6686 7.8772H34.3314C34.1406 7.8772 33.9695 7.99604 33.9059 8.17361L33.4465 9.44313H31.5238C30.899 9.44313 30.3929 9.94367 30.3929 10.5617V16.9372C30.3929 17.5552 30.899 18.0558 31.5238 18.0558H41.4762C42.1011 18.0558 42.6072 17.5552 42.6072 16.9372V10.5617C42.6072 9.94367 42.1011 9.44313 41.4762 9.44313ZM36.5 15.8187C35.2503 15.8187 34.2381 14.8176 34.2381 13.5817C34.2381 12.3457 35.2503 11.3446 36.5 11.3446C37.7497 11.3446 38.7619 12.3457 38.7619 13.5817C38.7619 14.8176 37.7497 15.8187 36.5 15.8187ZM35.1429 13.5817C35.1429 13.9377 35.2859 14.2791 35.5404 14.5308C35.7949 14.7825 36.1401 14.9239 36.5 14.9239C36.86 14.9239 37.2052 14.7825 37.4597 14.5308C37.7142 14.2791 37.8572 13.9377 37.8572 13.5817C37.8572 13.2257 37.7142 12.8843 37.4597 12.6326C37.2052 12.3809 36.86 12.2394 36.5 12.2394C36.1401 12.2394 35.7949 12.3809 35.5404 12.6326C35.2859 12.8843 35.1429 13.2257 35.1429 13.5817Z" fill="white"/>
<path d="M29.2619 54.2288H27.3393L26.8813 52.9593C26.8496 52.8724 26.7916 52.7973 26.7152 52.7442C26.6388 52.6912 26.5477 52.6628 26.4543 52.6628H22.1171C21.9263 52.6628 21.7552 52.7817 21.6916 52.9593L21.2322 54.2288H19.3095C18.6847 54.2288 18.1786 54.7293 18.1786 55.3473V61.7229C18.1786 62.3409 18.6847 62.8414 19.3095 62.8414H29.2619C29.8868 62.8414 30.3929 62.3409 30.3929 61.7229V55.3473C30.3929 54.7293 29.8868 54.2288 29.2619 54.2288ZM24.2857 60.6044C23.036 60.6044 22.0238 59.6033 22.0238 58.3673C22.0238 57.1313 23.036 56.1303 24.2857 56.1303C25.5354 56.1303 26.5476 57.1313 26.5476 58.3673C26.5476 59.6033 25.5354 60.6044 24.2857 60.6044ZM22.9286 58.3673C22.9286 58.7233 23.0716 59.0647 23.3261 59.3164C23.5806 59.5681 23.9258 59.7095 24.2857 59.7095C24.6457 59.7095 24.9909 59.5681 25.2454 59.3164C25.4999 59.0647 25.6429 58.7233 25.6429 58.3673C25.6429 58.0113 25.4999 57.6699 25.2454 57.4182C24.9909 57.1665 24.6457 57.0251 24.2857 57.0251C23.9258 57.0251 23.5806 57.1665 23.3261 57.4182C23.0716 57.6699 22.9286 58.0113 22.9286 58.3673Z" fill="white"/>
<path d="M63.869 32.8538H61.9464L61.4884 31.5843C61.4567 31.4974 61.3987 31.4223 61.3223 31.3692C61.2459 31.3162 61.1548 31.2878 61.0615 31.2878H56.7242C56.5334 31.2878 56.3623 31.4067 56.2987 31.5843L55.8393 32.8538H53.9167C53.2918 32.8538 52.7857 33.3543 52.7857 33.9723V40.3479C52.7857 40.9659 53.2918 41.4664 53.9167 41.4664H63.869C64.4939 41.4664 65 40.9659 65 40.3479V33.9723C65 33.3543 64.4939 32.8538 63.869 32.8538ZM58.8928 39.2294C57.6431 39.2294 56.6309 38.2283 56.6309 36.9923C56.6309 35.7563 57.6431 34.7553 58.8928 34.7553C60.1426 34.7553 61.1548 35.7563 61.1548 36.9923C61.1548 38.2283 60.1426 39.2294 58.8928 39.2294ZM57.5357 36.9923C57.5357 37.3483 57.6787 37.6897 57.9332 37.9414C58.1877 38.1931 58.5329 38.3345 58.8928 38.3345C59.2528 38.3345 59.598 38.1931 59.8525 37.9414C60.107 37.6897 60.25 37.3483 60.25 36.9923C60.25 36.6363 60.107 36.2949 59.8525 36.0432C59.598 35.7915 59.2528 35.6501 58.8928 35.6501C58.5329 35.6501 58.1877 35.7915 57.9332 36.0432C57.6787 36.2949 57.5357 36.6363 57.5357 36.9923Z" fill="white"/>
<path d="M41.4762 32.8538H39.5536L39.0956 31.5843C39.0639 31.4974 39.0059 31.4223 38.9295 31.3692C38.8531 31.3162 38.762 31.2878 38.6686 31.2878H34.3314C34.1406 31.2878 33.9695 31.4067 33.9059 31.5843L33.4465 32.8538H31.5238C30.899 32.8538 30.3929 33.3543 30.3929 33.9723V40.3479C30.3929 40.9659 30.899 41.4664 31.5238 41.4664H41.4762C42.1011 41.4664 42.6072 40.9659 42.6072 40.3479V33.9723C42.6072 33.3543 42.1011 32.8538 41.4762 32.8538ZM36.5 39.2294C35.2503 39.2294 34.2381 38.2283 34.2381 36.9923C34.2381 35.7563 35.2503 34.7553 36.5 34.7553C37.7497 34.7553 38.7619 35.7563 38.7619 36.9923C38.7619 38.2283 37.7497 39.2294 36.5 39.2294ZM35.1429 36.9923C35.1429 37.3483 35.2859 37.6897 35.5404 37.9414C35.7949 38.1931 36.1401 38.3345 36.5 38.3345C36.86 38.3345 37.2052 38.1931 37.4597 37.9414C37.7142 37.6897 37.8572 37.3483 37.8572 36.9923C37.8572 36.6363 37.7142 36.2949 37.4597 36.0432C37.2052 35.7915 36.86 35.6501 36.5 35.6501C36.1401 35.6501 35.7949 35.7915 35.5404 36.0432C35.2859 36.2949 35.1429 36.6363 35.1429 36.9923Z" fill="white"/>
<path d="M97.7188 37H101.832L109.707 11.4062H105.102L100.197 29.1074L99.7578 30.6543L99.3359 29.125L94.4668 11.4062H89.8438L97.7188 37ZM121.073 11.4062V14.9043H126.417V33.5195H121.073V37H136.155V33.5195H130.688V14.9043H136.155V11.4062H121.073ZM165.802 37V11.4062H161.671V22.1113H153.058V11.4062H148.945V37H153.058V25.5918H161.671V37H165.802ZM190.51 31.1113L192.233 37H196.61L188.418 11.4062H184.674L176.342 37H180.737L182.477 31.1113H190.51ZM183.549 27.4902L186.537 17.3652L189.473 27.4902H183.549ZM224.06 33.8535L224.025 24.0625H215.236V27.3496H219.876L219.859 32.4648C219.671 32.7109 219.419 32.9277 219.103 33.1152C218.786 33.291 218.441 33.4375 218.066 33.5547C217.679 33.6719 217.275 33.7598 216.853 33.8184C216.431 33.8652 216.015 33.8887 215.605 33.8887C214.913 33.877 214.292 33.7598 213.741 33.5371C213.202 33.3145 212.728 32.998 212.318 32.5879C211.989 32.2715 211.702 31.9082 211.456 31.498C211.222 31.0879 211.017 30.6484 210.841 30.1797C210.618 29.5586 210.448 28.8848 210.331 28.1582C210.226 27.4316 210.173 26.6641 210.173 25.8555V22.5508C210.173 21.8594 210.214 21.1855 210.296 20.5293C210.378 19.873 210.507 19.2578 210.683 18.6836C210.882 18.0273 211.134 17.4355 211.439 16.9082C211.755 16.3691 212.124 15.9121 212.546 15.5371C212.909 15.2324 213.32 14.9922 213.777 14.8164C214.234 14.6289 214.732 14.5352 215.271 14.5352C216.009 14.5352 216.648 14.6406 217.187 14.8516C217.738 15.0625 218.2 15.3672 218.575 15.7656C218.927 16.1406 219.208 16.6035 219.419 17.1543C219.63 17.6934 219.788 18.2969 219.894 18.9648H224.042C223.925 17.7461 223.65 16.6504 223.216 15.6777C222.782 14.6934 222.191 13.8555 221.441 13.1641C220.702 12.4844 219.812 11.9629 218.769 11.5996C217.726 11.2363 216.53 11.0547 215.183 11.0547C214.187 11.0547 213.261 11.1953 212.405 11.4766C211.562 11.7578 210.788 12.1563 210.085 12.6719C209.441 13.1641 208.866 13.7441 208.363 14.4121C207.859 15.0801 207.425 15.8184 207.062 16.627C206.687 17.4824 206.4 18.4141 206.2 19.4219C206.013 20.4297 205.913 21.4844 205.902 22.5859V25.8555C205.913 26.9922 206.025 28.0762 206.236 29.1074C206.446 30.1387 206.757 31.082 207.167 31.9375C207.53 32.7578 207.982 33.502 208.521 34.1699C209.071 34.8379 209.693 35.4062 210.384 35.875C211.075 36.3438 211.849 36.707 212.704 36.9648C213.56 37.2227 214.48 37.3516 215.464 37.3516C216.53 37.3516 217.532 37.2402 218.47 37.0176C219.407 36.8066 220.275 36.5078 221.071 36.1211C221.704 35.8164 222.273 35.4707 222.777 35.084C223.28 34.6855 223.708 34.2754 224.06 33.8535Z" fill="white"/>
<path d="M93.9336 58.0391V60.5703H95.7031C96.1484 60.5703 96.5469 60.6211 96.8984 60.7227C97.2578 60.8242 97.5664 60.9805 97.8242 61.1914C98.0742 61.4023 98.2656 61.6719 98.3984 62C98.5312 62.3281 98.5977 62.7227 98.5977 63.1836C98.5977 63.5508 98.5391 63.8828 98.4219 64.1797C98.3125 64.4766 98.1484 64.7266 97.9297 64.9297C97.7031 65.1562 97.4219 65.3281 97.0859 65.4453C96.75 65.5625 96.3711 65.6211 95.9492 65.6211C95.5742 65.6211 95.2305 65.5664 94.918 65.457C94.6055 65.3398 94.3359 65.1797 94.1094 64.9766C93.875 64.7812 93.6953 64.5469 93.5703 64.2734C93.4453 63.9922 93.3828 63.6875 93.3828 63.3594H90.125C90.125 64.1875 90.2852 64.9062 90.6055 65.5156C90.9336 66.125 91.3672 66.6289 91.9062 67.0273C92.4453 67.4336 93.0586 67.7383 93.7461 67.9414C94.4414 68.1367 95.1523 68.2344 95.8789 68.2344C96.7227 68.2344 97.5078 68.125 98.2344 67.9062C98.9688 67.6797 99.6016 67.3516 100.133 66.9219C100.664 66.5 101.082 65.9766 101.387 65.3516C101.691 64.7266 101.844 64.0156 101.844 63.2188C101.844 62.7656 101.789 62.3359 101.68 61.9297C101.57 61.5234 101.402 61.1484 101.176 60.8047C100.949 60.4688 100.66 60.168 100.309 59.9023C99.9648 59.6367 99.5547 59.418 99.0781 59.2461C99.4844 59.0508 99.8438 58.8203 100.156 58.5547C100.469 58.2812 100.73 57.9844 100.941 57.6641C101.152 57.3438 101.312 57.0078 101.422 56.6562C101.531 56.2969 101.586 55.9336 101.586 55.5664C101.586 54.7695 101.445 54.0703 101.164 53.4688C100.891 52.8594 100.504 52.3477 100.004 51.9336C99.5039 51.5273 98.9023 51.2227 98.1992 51.0195C97.4961 50.8086 96.7227 50.7031 95.8789 50.7031C95.0977 50.7031 94.3672 50.8164 93.6875 51.043C93.0156 51.2695 92.4297 51.5859 91.9297 51.9922C91.4297 52.4062 91.0352 52.8984 90.7461 53.4688C90.4648 54.0391 90.3242 54.6719 90.3242 55.3672H93.582C93.582 55.0547 93.6445 54.7734 93.7695 54.5234C93.8945 54.2734 94.0664 54.0586 94.2852 53.8789C94.4961 53.707 94.7422 53.5742 95.0234 53.4805C95.3125 53.3867 95.6211 53.3398 95.9492 53.3398C96.3477 53.3398 96.6953 53.3945 96.9922 53.5039C97.2969 53.6133 97.5469 53.7656 97.7422 53.9609C97.9375 54.1641 98.082 54.4062 98.1758 54.6875C98.2773 54.9609 98.3281 55.2656 98.3281 55.6016C98.3281 55.9453 98.2773 56.2656 98.1758 56.5625C98.082 56.8516 97.9375 57.0977 97.7422 57.3008C97.5312 57.5352 97.2539 57.7188 96.9102 57.8516C96.5742 57.9766 96.1719 58.0391 95.7031 58.0391H93.9336ZM116.115 50.7969H115.681C114.267 50.7969 113.021 51.0352 111.943 51.5117C110.865 51.9805 109.962 52.6328 109.236 53.4688C108.509 54.3125 107.962 55.3125 107.595 56.4688C107.228 57.6172 107.045 58.8672 107.045 60.2188V61.4727C107.045 62.4492 107.181 63.3516 107.455 64.1797C107.736 65 108.134 65.7109 108.65 66.3125C109.158 66.9141 109.779 67.3867 110.513 67.7305C111.248 68.0664 112.072 68.2344 112.986 68.2344C113.861 68.2344 114.65 68.0859 115.353 67.7891C116.056 67.4844 116.654 67.0703 117.146 66.5469C117.638 66.0234 118.017 65.4062 118.283 64.6953C118.548 63.9844 118.681 63.2148 118.681 62.3867C118.681 61.6133 118.58 60.8789 118.377 60.1836C118.181 59.4805 117.88 58.8633 117.474 58.332C117.068 57.8086 116.56 57.3945 115.951 57.0898C115.349 56.7773 114.642 56.6211 113.83 56.6211C113.431 56.6211 113.06 56.668 112.716 56.7617C112.373 56.8555 112.056 56.9766 111.767 57.125C111.47 57.2812 111.205 57.457 110.97 57.6523C110.736 57.8398 110.529 58.0312 110.349 58.2266C110.42 57.5156 110.587 56.8711 110.853 56.293C111.127 55.7148 111.498 55.2188 111.966 54.8047C112.427 54.3906 112.986 54.0703 113.642 53.8438C114.306 53.6172 115.068 53.5039 115.927 53.5039H116.115V50.7969ZM112.88 59.2344C113.287 59.2344 113.646 59.3164 113.959 59.4805C114.279 59.6367 114.548 59.8555 114.767 60.1367C114.986 60.4258 115.154 60.7656 115.271 61.1562C115.388 61.5469 115.447 61.9727 115.447 62.4336C115.447 62.8945 115.388 63.3203 115.271 63.7109C115.154 64.0938 114.986 64.4258 114.767 64.707C114.548 64.9883 114.283 65.2109 113.97 65.375C113.658 65.5312 113.31 65.6094 112.927 65.6094C112.552 65.6094 112.205 65.5312 111.884 65.375C111.564 65.2188 111.287 64.9844 111.052 64.6719C110.818 64.3672 110.634 63.9805 110.502 63.5117C110.377 63.043 110.314 62.4961 110.314 61.8711V60.9102C110.423 60.6758 110.556 60.4609 110.712 60.2656C110.877 60.0703 111.056 59.8984 111.252 59.75C111.478 59.5859 111.728 59.4609 112.002 59.375C112.275 59.2812 112.568 59.2344 112.88 59.2344ZM135.39 61.5078V57.4297C135.39 56.3281 135.261 55.3594 135.003 54.5234C134.745 53.6797 134.378 52.9727 133.902 52.4023C133.417 51.8398 132.831 51.4141 132.144 51.125C131.456 50.8359 130.683 50.6914 129.823 50.6914C128.972 50.6914 128.202 50.8359 127.515 51.125C126.835 51.4141 126.257 51.8398 125.78 52.4023C125.296 52.9727 124.925 53.6797 124.667 54.5234C124.409 55.3594 124.28 56.3281 124.28 57.4297V61.5078C124.28 62.6094 124.409 63.582 124.667 64.4258C124.933 65.2617 125.308 65.9609 125.792 66.5234C126.269 67.0938 126.851 67.5234 127.538 67.8125C128.226 68.1016 128.995 68.2461 129.847 68.2461C130.706 68.2461 131.48 68.1016 132.167 67.8125C132.855 67.5234 133.437 67.0938 133.913 66.5234C134.39 65.9609 134.753 65.2617 135.003 64.4258C135.261 63.582 135.39 62.6094 135.39 61.5078ZM127.562 60.1016C127.562 59.8594 127.562 59.6758 127.562 59.5508C127.562 59.4258 127.562 59.1758 127.562 58.8008V56.9141C127.562 56.2812 127.609 55.7344 127.702 55.2734C127.804 54.8125 127.956 54.4375 128.159 54.1484C128.347 53.875 128.577 53.6719 128.851 53.5391C129.132 53.3984 129.456 53.3281 129.823 53.3281C130.152 53.3281 130.445 53.3828 130.702 53.4922C130.968 53.5938 131.191 53.7539 131.37 53.9727C131.605 54.2461 131.78 54.6133 131.898 55.0742C132.023 55.5273 132.093 56.0742 132.109 56.7148L127.562 60.1016ZM132.109 62C132.109 62.6328 132.058 63.1836 131.956 63.6523C131.862 64.1133 131.718 64.4922 131.523 64.7891C131.335 65.0703 131.101 65.2812 130.82 65.4219C130.538 65.5547 130.214 65.6211 129.847 65.6211C129.448 65.6211 129.105 65.543 128.816 65.3867C128.527 65.2305 128.288 64.9922 128.101 64.6719C127.937 64.4062 127.808 64.0742 127.714 63.6758C127.628 63.2773 127.577 62.8203 127.562 62.3047L132.109 58.9297C132.109 59.1562 132.109 59.332 132.109 59.457C132.109 59.5742 132.109 59.7617 132.109 60.0195V62ZM142.559 54.6289V56C142.559 56.5703 142.653 57.0977 142.841 57.582C143.036 58.0586 143.309 58.4688 143.661 58.8125C144.013 59.1562 144.438 59.4258 144.938 59.6211C145.446 59.8164 146.013 59.9141 146.638 59.9141C147.263 59.9141 147.825 59.8164 148.325 59.6211C148.825 59.4258 149.251 59.1562 149.602 58.8125C149.946 58.4688 150.212 58.0586 150.399 57.582C150.587 57.0977 150.68 56.5703 150.68 56V54.6289C150.68 54.0586 150.587 53.5352 150.399 53.0586C150.212 52.5742 149.942 52.1562 149.591 51.8047C149.239 51.4609 148.813 51.1914 148.313 50.9961C147.813 50.8008 147.247 50.7031 146.614 50.7031C145.989 50.7031 145.427 50.8008 144.927 50.9961C144.427 51.1914 144.001 51.4609 143.649 51.8047C143.298 52.1562 143.028 52.5742 142.841 53.0586C142.653 53.5352 142.559 54.0586 142.559 54.6289ZM144.61 56V54.6289C144.61 54.3164 144.649 54.0273 144.727 53.7617C144.813 53.4961 144.942 53.2656 145.114 53.0703C145.278 52.875 145.485 52.7227 145.735 52.6133C145.985 52.4961 146.278 52.4375 146.614 52.4375C146.95 52.4375 147.243 52.4961 147.493 52.6133C147.751 52.7227 147.966 52.875 148.138 53.0703C148.302 53.2656 148.423 53.4961 148.501 53.7617C148.587 54.0273 148.63 54.3164 148.63 54.6289V56C148.63 56.3203 148.587 56.6133 148.501 56.8789C148.423 57.1445 148.302 57.375 148.138 57.5703C147.973 57.7734 147.766 57.9297 147.516 58.0391C147.266 58.1484 146.973 58.2031 146.638 58.2031C146.294 58.2031 145.993 58.1484 145.735 58.0391C145.485 57.9297 145.278 57.7734 145.114 57.5703C144.942 57.375 144.813 57.1445 144.727 56.8789C144.649 56.6133 144.61 56.3203 144.61 56ZM174.77 72.875H178.027V66.8984C178.176 67.0625 178.332 67.2109 178.496 67.3438C178.66 67.4766 178.832 67.5977 179.012 67.707C179.316 67.8789 179.645 68.0078 179.996 68.0938C180.355 68.1875 180.746 68.2344 181.168 68.2344C181.965 68.2344 182.672 68.0703 183.289 67.7422C183.906 67.4141 184.426 66.9609 184.848 66.3828C185.262 65.8125 185.574 65.1328 185.785 64.3438C186.004 63.5547 186.113 62.6992 186.113 61.7773V61.5312C186.113 60.5703 186.004 59.6953 185.785 58.9062C185.574 58.1094 185.258 57.4258 184.836 56.8555C184.414 56.293 183.895 55.8594 183.277 55.5547C182.66 55.2422 181.949 55.0859 181.145 55.0859C180.754 55.0859 180.387 55.1289 180.043 55.2148C179.707 55.293 179.398 55.4062 179.117 55.5547C178.883 55.6797 178.664 55.8281 178.461 56C178.258 56.1641 178.07 56.3516 177.898 56.5625L177.781 55.3203H174.77V72.875ZM182.855 61.5312V61.7773C182.855 62.3008 182.809 62.7969 182.715 63.2656C182.621 63.7266 182.473 64.1328 182.27 64.4844C182.066 64.8359 181.801 65.1133 181.473 65.3164C181.152 65.5195 180.762 65.6211 180.301 65.6211C180.012 65.6211 179.75 65.5938 179.516 65.5391C179.281 65.4766 179.074 65.3906 178.895 65.2812C178.707 65.1641 178.539 65.0234 178.391 64.8594C178.25 64.6953 178.129 64.5117 178.027 64.3086V59.0117C178.137 58.793 178.266 58.6016 178.414 58.4375C178.57 58.2734 178.75 58.1367 178.953 58.0273C179.133 57.9336 179.332 57.8633 179.551 57.8164C179.77 57.7617 180.012 57.7344 180.277 57.7344C180.738 57.7344 181.129 57.832 181.449 58.0273C181.777 58.2227 182.047 58.4883 182.258 58.8242C182.461 59.168 182.609 59.5742 182.703 60.043C182.805 60.5039 182.855 61 182.855 61.5312ZM194.795 57.0664V50H191.537V68H194.795V58.8477C194.92 58.6836 195.056 58.5352 195.205 58.4023C195.361 58.2695 195.533 58.1562 195.72 58.0625C195.923 57.9531 196.15 57.8711 196.4 57.8164C196.65 57.7617 196.92 57.7344 197.209 57.7344C197.584 57.7344 197.92 57.7852 198.216 57.8867C198.513 57.9805 198.767 58.1289 198.978 58.332C199.189 58.5352 199.349 58.8008 199.459 59.1289C199.576 59.457 199.634 59.8477 199.634 60.3008V68H202.892V60.3242C202.892 59.3945 202.779 58.6016 202.552 57.9453C202.334 57.2812 202.025 56.7383 201.627 56.3164C201.228 55.8945 200.752 55.5859 200.197 55.3906C199.642 55.1875 199.033 55.0859 198.369 55.0859C197.916 55.0859 197.486 55.1523 197.08 55.2852C196.673 55.418 196.302 55.6055 195.966 55.8477C195.748 56.0039 195.537 56.1875 195.334 56.3984C195.138 56.6016 194.959 56.8242 194.795 57.0664ZM207.905 61.543V61.7891C207.905 62.7188 208.038 63.5781 208.304 64.3672C208.57 65.1484 208.96 65.8281 209.476 66.4062C209.984 66.9844 210.609 67.4375 211.351 67.7656C212.101 68.0859 212.952 68.2461 213.905 68.2461C214.851 68.2461 215.695 68.0859 216.437 67.7656C217.179 67.4375 217.804 66.9844 218.312 66.4062C218.82 65.8281 219.206 65.1484 219.472 64.3672C219.738 63.5781 219.87 62.7188 219.87 61.7891V61.543C219.87 60.6211 219.738 59.7695 219.472 58.9883C219.206 58.1992 218.82 57.5156 218.312 56.9375C217.796 56.3594 217.167 55.9062 216.425 55.5781C215.683 55.25 214.835 55.0859 213.882 55.0859C212.929 55.0859 212.081 55.25 211.339 55.5781C210.605 55.9062 209.984 56.3594 209.476 56.9375C208.96 57.5156 208.57 58.1992 208.304 58.9883C208.038 59.7695 207.905 60.6211 207.905 61.543ZM211.163 61.7891V61.543C211.163 61.0273 211.214 60.5391 211.316 60.0781C211.417 59.6172 211.577 59.2109 211.796 58.8594C212.015 58.5078 212.296 58.2305 212.64 58.0273C212.984 57.8242 213.398 57.7227 213.882 57.7227C214.374 57.7227 214.792 57.8242 215.136 58.0273C215.48 58.2305 215.761 58.5078 215.98 58.8594C216.191 59.2109 216.347 59.6172 216.448 60.0781C216.55 60.5391 216.601 61.0273 216.601 61.543V61.7891C216.601 62.3203 216.55 62.8203 216.448 63.2891C216.347 63.75 216.191 64.1523 215.98 64.4961C215.761 64.8477 215.48 65.125 215.136 65.3281C214.792 65.5312 214.382 65.6328 213.905 65.6328C213.413 65.6328 212.991 65.5312 212.64 65.3281C212.296 65.125 212.015 64.8477 211.796 64.4961C211.577 64.1523 211.417 63.75 211.316 63.2891C211.214 62.8203 211.163 62.3203 211.163 61.7891ZM231.141 52.2148H227.884V55.3203H224.989V57.7227H227.884V63.4883C227.884 64.3242 227.993 65.043 228.212 65.6445C228.43 66.2383 228.743 66.7266 229.149 67.1094C229.548 67.5 230.028 67.7891 230.591 67.9766C231.161 68.1562 231.794 68.2461 232.489 68.2461C232.848 68.2461 233.212 68.2266 233.579 68.1875C233.954 68.1562 234.313 68.1094 234.657 68.0469C235.001 67.9844 235.325 67.9062 235.63 67.8125C235.934 67.7109 236.2 67.5938 236.427 67.4609L236.11 65.2227C235.962 65.2617 235.782 65.3008 235.571 65.3398C235.368 65.3789 235.149 65.4141 234.915 65.4453C234.673 65.4844 234.419 65.5156 234.153 65.5391C233.895 65.5625 233.641 65.5742 233.391 65.5742C233.048 65.5742 232.735 65.5352 232.454 65.457C232.18 65.3789 231.946 65.2461 231.751 65.0586C231.555 64.8789 231.403 64.6367 231.294 64.332C231.192 64.0195 231.141 63.6328 231.141 63.1719V57.7227H235.876V55.3203H231.141V52.2148ZM241.534 61.543V61.7891C241.534 62.7188 241.666 63.5781 241.932 64.3672C242.198 65.1484 242.588 65.8281 243.104 66.4062C243.612 66.9844 244.237 67.4375 244.979 67.7656C245.729 68.0859 246.58 68.2461 247.534 68.2461C248.479 68.2461 249.323 68.0859 250.065 67.7656C250.807 67.4375 251.432 66.9844 251.94 66.4062C252.448 65.8281 252.834 65.1484 253.1 64.3672C253.366 63.5781 253.498 62.7188 253.498 61.7891V61.543C253.498 60.6211 253.366 59.7695 253.1 58.9883C252.834 58.1992 252.448 57.5156 251.94 56.9375C251.424 56.3594 250.795 55.9062 250.053 55.5781C249.311 55.25 248.463 55.0859 247.51 55.0859C246.557 55.0859 245.709 55.25 244.967 55.5781C244.233 55.9062 243.612 56.3594 243.104 56.9375C242.588 57.5156 242.198 58.1992 241.932 58.9883C241.666 59.7695 241.534 60.6211 241.534 61.543ZM244.791 61.7891V61.543C244.791 61.0273 244.842 60.5391 244.944 60.0781C245.045 59.6172 245.205 59.2109 245.424 58.8594C245.643 58.5078 245.924 58.2305 246.268 58.0273C246.612 57.8242 247.026 57.7227 247.51 57.7227C248.002 57.7227 248.42 57.8242 248.764 58.0273C249.108 58.2305 249.389 58.5078 249.608 58.8594C249.819 59.2109 249.975 59.6172 250.077 60.0781C250.178 60.5391 250.229 61.0273 250.229 61.543V61.7891C250.229 62.3203 250.178 62.8203 250.077 63.2891C249.975 63.75 249.819 64.1523 249.608 64.4961C249.389 64.8477 249.108 65.125 248.764 65.3281C248.42 65.5312 248.01 65.6328 247.534 65.6328C247.041 65.6328 246.62 65.5312 246.268 65.3281C245.924 65.125 245.643 64.8477 245.424 64.4961C245.205 64.1523 245.045 63.75 244.944 63.2891C244.842 62.8203 244.791 62.3203 244.791 61.7891ZM258.465 61.5664V61.8125C258.465 62.7344 258.582 63.5898 258.816 64.3789C259.059 65.1602 259.402 65.8359 259.848 66.4062C260.293 66.9766 260.828 67.4258 261.453 67.7539C262.086 68.0742 262.797 68.2344 263.586 68.2344C263.984 68.2344 264.355 68.1914 264.699 68.1055C265.051 68.0195 265.371 67.8984 265.66 67.7422C265.855 67.6328 266.039 67.5078 266.211 67.3672C266.383 67.2266 266.547 67.0703 266.703 66.8984V67.625C266.703 68.0547 266.641 68.4414 266.516 68.7852C266.398 69.1289 266.227 69.418 266 69.6523C265.75 69.9102 265.438 70.1055 265.062 70.2383C264.695 70.3711 264.273 70.4375 263.797 70.4375C263.5 70.4375 263.211 70.4062 262.93 70.3438C262.656 70.2891 262.391 70.2031 262.133 70.0859C261.867 69.9688 261.613 69.8164 261.371 69.6289C261.129 69.4492 260.902 69.2383 260.691 68.9961L259.227 70.9766C259.5 71.3281 259.828 71.6289 260.211 71.8789C260.594 72.1367 261 72.3477 261.43 72.5117C261.859 72.6758 262.293 72.7969 262.73 72.875C263.168 72.9531 263.578 72.9922 263.961 72.9922C264.852 72.9922 265.664 72.8711 266.398 72.6289C267.141 72.3945 267.777 72.0469 268.309 71.5859C268.832 71.125 269.238 70.5586 269.527 69.8867C269.824 69.2148 269.973 68.4492 269.973 67.5898V55.3203H267.008L266.879 56.5273C266.723 56.332 266.551 56.1562 266.363 56C266.176 55.8359 265.973 55.6953 265.754 55.5781C265.465 55.4141 265.141 55.293 264.781 55.2148C264.43 55.1289 264.039 55.0859 263.609 55.0859C262.812 55.0859 262.098 55.2422 261.465 55.5547C260.832 55.8672 260.293 56.3086 259.848 56.8789C259.402 57.4492 259.059 58.1328 258.816 58.9297C258.582 59.7266 258.465 60.6055 258.465 61.5664ZM261.734 61.8125V61.5664C261.734 61.0352 261.789 60.5391 261.898 60.0781C262.008 59.6094 262.176 59.1992 262.402 58.8477C262.621 58.5039 262.898 58.2344 263.234 58.0391C263.57 57.8359 263.969 57.7344 264.43 57.7344C264.68 57.7344 264.91 57.7578 265.121 57.8047C265.34 57.8516 265.539 57.918 265.719 58.0039C265.93 58.1055 266.117 58.2383 266.281 58.4023C266.445 58.5664 266.586 58.7578 266.703 58.9766V64.3438C266.594 64.5391 266.465 64.7148 266.316 64.8711C266.168 65.0273 265.996 65.1602 265.801 65.2695C265.613 65.3711 265.402 65.4492 265.168 65.5039C264.941 65.5586 264.688 65.5859 264.406 65.5859C263.945 65.5859 263.547 65.4883 263.211 65.293C262.875 65.0977 262.598 64.8281 262.379 64.4844C262.16 64.1484 261.996 63.7539 261.887 63.3008C261.785 62.8398 261.734 62.3438 261.734 61.8125ZM284.712 55.0859C283.861 55.0859 283.076 55.293 282.357 55.707C281.638 56.1133 281.021 56.6758 280.505 57.3945L280.482 57.1133L280.353 55.3203H277.318V68H280.576V60.3828C280.724 60.0234 280.912 59.7109 281.138 59.4453C281.365 59.1797 281.638 58.9609 281.959 58.7891C282.224 58.6406 282.525 58.5312 282.861 58.4609C283.205 58.3828 283.587 58.3438 284.009 58.3438C284.416 58.3438 284.841 58.3711 285.287 58.4258C285.74 58.4727 286.181 58.5469 286.611 58.6484L287.091 55.4023C286.834 55.3242 286.494 55.2539 286.072 55.1914C285.658 55.1211 285.205 55.0859 284.712 55.0859ZM300.343 68H303.648V67.8008C303.484 67.4805 303.359 67.0977 303.273 66.6523C303.187 66.207 303.144 65.6445 303.144 64.9648V59.5273C303.144 58.793 303.007 58.1484 302.734 57.5938C302.46 57.0312 302.081 56.5664 301.597 56.1992C301.113 55.832 300.538 55.5547 299.874 55.3672C299.218 55.1797 298.507 55.0859 297.741 55.0859C296.89 55.0859 296.132 55.1953 295.468 55.4141C294.812 55.625 294.257 55.9141 293.804 56.2812C293.343 56.6484 292.991 57.0742 292.749 57.5586C292.515 58.043 292.398 58.5547 292.398 59.0938H295.655C295.655 58.8672 295.687 58.6602 295.749 58.4727C295.82 58.2852 295.925 58.125 296.066 57.9922C296.222 57.8438 296.425 57.7305 296.675 57.6523C296.925 57.5664 297.222 57.5234 297.566 57.5234C297.956 57.5234 298.296 57.5742 298.585 57.6758C298.882 57.7695 299.128 57.9062 299.323 58.0859C299.511 58.2578 299.652 58.4648 299.745 58.707C299.839 58.9414 299.886 59.207 299.886 59.5039V60.2539H298.07C297.132 60.2539 296.3 60.3398 295.573 60.5117C294.855 60.6758 294.249 60.918 293.757 61.2383C293.21 61.5898 292.8 62.0391 292.527 62.5859C292.253 63.125 292.116 63.7461 292.116 64.4492C292.116 64.9961 292.226 65.5039 292.445 65.9727C292.663 66.4336 292.968 66.832 293.359 67.168C293.749 67.5039 294.214 67.7656 294.753 67.9531C295.3 68.1406 295.898 68.2344 296.546 68.2344C296.945 68.2344 297.316 68.1953 297.659 68.1172C298.003 68.0469 298.32 67.9453 298.609 67.8125C298.89 67.6875 299.148 67.5391 299.382 67.3672C299.616 67.1953 299.823 67.0117 300.003 66.8164C300.042 67.043 300.089 67.2578 300.144 67.4609C300.198 67.6641 300.265 67.8438 300.343 68ZM297.238 65.7148C296.933 65.7148 296.663 65.6797 296.429 65.6094C296.202 65.5312 296.011 65.4297 295.855 65.3047C295.698 65.1719 295.577 65.0117 295.491 64.8242C295.413 64.6289 295.374 64.418 295.374 64.1914C295.374 63.9023 295.429 63.6367 295.538 63.3945C295.648 63.1445 295.816 62.9297 296.042 62.75C296.269 62.5781 296.562 62.4453 296.921 62.3516C297.28 62.25 297.714 62.1992 298.222 62.1992H299.886V64.3789C299.792 64.543 299.663 64.707 299.499 64.8711C299.335 65.0273 299.14 65.168 298.913 65.293C298.687 65.418 298.433 65.5195 298.152 65.5977C297.87 65.6758 297.566 65.7148 297.238 65.7148ZM309.282 72.875H312.54V66.8984C312.688 67.0625 312.845 67.2109 313.009 67.3438C313.173 67.4766 313.345 67.5977 313.524 67.707C313.829 67.8789 314.157 68.0078 314.509 68.0938C314.868 68.1875 315.259 68.2344 315.68 68.2344C316.477 68.2344 317.184 68.0703 317.802 67.7422C318.419 67.4141 318.938 66.9609 319.36 66.3828C319.774 65.8125 320.087 65.1328 320.298 64.3438C320.516 63.5547 320.626 62.6992 320.626 61.7773V61.5312C320.626 60.5703 320.516 59.6953 320.298 58.9062C320.087 58.1094 319.77 57.4258 319.348 56.8555C318.927 56.293 318.407 55.8594 317.79 55.5547C317.173 55.2422 316.462 55.0859 315.657 55.0859C315.266 55.0859 314.899 55.1289 314.555 55.2148C314.22 55.293 313.911 55.4062 313.63 55.5547C313.395 55.6797 313.177 55.8281 312.973 56C312.77 56.1641 312.583 56.3516 312.411 56.5625L312.294 55.3203H309.282V72.875ZM317.368 61.5312V61.7773C317.368 62.3008 317.321 62.7969 317.227 63.2656C317.134 63.7266 316.985 64.1328 316.782 64.4844C316.579 64.8359 316.313 65.1133 315.985 65.3164C315.665 65.5195 315.274 65.6211 314.813 65.6211C314.524 65.6211 314.262 65.5938 314.028 65.5391C313.794 65.4766 313.587 65.3906 313.407 65.2812C313.22 65.1641 313.052 65.0234 312.903 64.8594C312.762 64.6953 312.641 64.5117 312.54 64.3086V59.0117C312.649 58.793 312.778 58.6016 312.927 58.4375C313.083 58.2734 313.262 58.1367 313.466 58.0273C313.645 57.9336 313.845 57.8633 314.063 57.8164C314.282 57.7617 314.524 57.7344 314.79 57.7344C315.251 57.7344 315.641 57.832 315.962 58.0273C316.29 58.2227 316.559 58.4883 316.77 58.8242C316.973 59.168 317.122 59.5742 317.216 60.043C317.317 60.5039 317.368 61 317.368 61.5312ZM325.721 61.5664V61.8125C325.721 62.7344 325.838 63.5898 326.073 64.3789C326.315 65.1602 326.659 65.8359 327.104 66.4062C327.549 66.9766 328.084 67.4258 328.709 67.7539C329.342 68.0742 330.053 68.2344 330.842 68.2344C331.241 68.2344 331.612 68.1914 331.955 68.1055C332.307 68.0195 332.627 67.8984 332.916 67.7422C333.112 67.6328 333.295 67.5078 333.467 67.3672C333.639 67.2266 333.803 67.0703 333.959 66.8984V67.625C333.959 68.0547 333.897 68.4414 333.772 68.7852C333.655 69.1289 333.483 69.418 333.256 69.6523C333.006 69.9102 332.694 70.1055 332.319 70.2383C331.952 70.3711 331.53 70.4375 331.053 70.4375C330.756 70.4375 330.467 70.4062 330.186 70.3438C329.913 70.2891 329.647 70.2031 329.389 70.0859C329.123 69.9688 328.87 69.8164 328.627 69.6289C328.385 69.4492 328.159 69.2383 327.948 68.9961L326.483 70.9766C326.756 71.3281 327.084 71.6289 327.467 71.8789C327.85 72.1367 328.256 72.3477 328.686 72.5117C329.116 72.6758 329.549 72.7969 329.987 72.875C330.424 72.9531 330.834 72.9922 331.217 72.9922C332.108 72.9922 332.92 72.8711 333.655 72.6289C334.397 72.3945 335.034 72.0469 335.565 71.5859C336.088 71.125 336.495 70.5586 336.784 69.8867C337.08 69.2148 337.229 68.4492 337.229 67.5898V55.3203H334.264L334.135 56.5273C333.979 56.332 333.807 56.1562 333.62 56C333.432 55.8359 333.229 55.6953 333.01 55.5781C332.721 55.4141 332.397 55.293 332.038 55.2148C331.686 55.1289 331.295 55.0859 330.866 55.0859C330.069 55.0859 329.354 55.2422 328.721 55.5547C328.088 55.8672 327.549 56.3086 327.104 56.8789C326.659 57.4492 326.315 58.1328 326.073 58.9297C325.838 59.7266 325.721 60.6055 325.721 61.5664ZM328.991 61.8125V61.5664C328.991 61.0352 329.045 60.5391 329.155 60.0781C329.264 59.6094 329.432 59.1992 329.659 58.8477C329.877 58.5039 330.155 58.2344 330.491 58.0391C330.827 57.8359 331.225 57.7344 331.686 57.7344C331.936 57.7344 332.166 57.7578 332.377 57.8047C332.596 57.8516 332.795 57.918 332.975 58.0039C333.186 58.1055 333.373 58.2383 333.538 58.4023C333.702 58.5664 333.842 58.7578 333.959 58.9766V64.3438C333.85 64.5391 333.721 64.7148 333.573 64.8711C333.424 65.0273 333.252 65.1602 333.057 65.2695C332.87 65.3711 332.659 65.4492 332.424 65.5039C332.198 65.5586 331.944 65.5859 331.663 65.5859C331.202 65.5859 330.803 65.4883 330.467 65.293C330.131 65.0977 329.854 64.8281 329.635 64.4844C329.416 64.1484 329.252 63.7539 329.143 63.3008C329.041 62.8398 328.991 62.3438 328.991 61.8125ZM346.121 57.0664V50H342.863V68H346.121V58.8477C346.246 58.6836 346.383 58.5352 346.531 58.4023C346.688 58.2695 346.859 58.1562 347.047 58.0625C347.25 57.9531 347.477 57.8711 347.727 57.8164C347.977 57.7617 348.246 57.7344 348.535 57.7344C348.91 57.7344 349.246 57.7852 349.543 57.8867C349.84 57.9805 350.094 58.1289 350.305 58.332C350.516 58.5352 350.676 58.8008 350.785 59.1289C350.902 59.457 350.961 59.8477 350.961 60.3008V68H354.219V60.3242C354.219 59.3945 354.105 58.6016 353.879 57.9453C353.66 57.2812 353.352 56.7383 352.953 56.3164C352.555 55.8945 352.078 55.5859 351.523 55.3906C350.969 55.1875 350.359 55.0859 349.695 55.0859C349.242 55.0859 348.812 55.1523 348.406 55.2852C348 55.418 347.629 55.6055 347.293 55.8477C347.074 56.0039 346.863 56.1875 346.66 56.3984C346.465 56.6016 346.285 56.8242 346.121 57.0664ZM361.681 73.1211C362.337 73.1211 362.904 73.0117 363.38 72.793C363.865 72.5742 364.275 72.3047 364.611 71.9844C364.947 71.6641 365.224 71.3164 365.443 70.9414C365.67 70.5664 365.853 70.2188 365.994 69.8984L372.427 55.3203H368.83L365.935 62.7734L365.455 64.0391L365.103 62.75L362.197 55.3203H358.634L364.002 67.4609L363.252 68.8555C363.158 69.0273 363.076 69.1602 363.005 69.2539C362.943 69.3477 362.841 69.4883 362.701 69.6758C362.56 69.8633 362.388 70.0352 362.185 70.1914C361.99 70.3555 361.763 70.4375 361.505 70.4375C361.38 70.4375 361.212 70.4297 361.002 70.4141C360.798 70.4062 360.63 70.4023 360.498 70.4023L360.099 72.8867C360.38 72.9648 360.634 73.0234 360.861 73.0625C361.095 73.1016 361.369 73.1211 361.681 73.1211Z" fill="#B90000"/>
</svg>
